<mxfile host="app.diagrams.net" modified="2022-06-14T15:48:37.561Z" agent="5.0 (Windows NT 10.0; Win64; x64) AppleWebKit/537.36 (KHTML, like Gecko) Chrome/102.0.5005.63 Safari/537.36 Edg/102.0.1245.39" etag="w8jW_AaKG-AcN6Dq8tRO" version="20.0.1" type="github">
  <diagram id="O5ftclB6xCMxiQQ1lLrp" name="Page-1">
    <mxGraphModel dx="2500" dy="2094" grid="1" gridSize="10" guides="1" tooltips="1" connect="1" arrows="1" fold="1" page="1" pageScale="1" pageWidth="827" pageHeight="1169" math="0" shadow="0">
      <root>
        <mxCell id="0" />
        <mxCell id="1" parent="0" />
        <mxCell id="ygFPYad_q7GnZOstslIp-2" value="&lt;u&gt;num_carteira&lt;/u&gt;" style="rounded=1;whiteSpace=wrap;html=1;fillColor=#b1ddf0;strokeColor=#10739e;fontStyle=2;labelBorderColor=none;labelBackgroundColor=none;" vertex="1" parent="1">
          <mxGeometry x="40" y="40" width="120" height="60" as="geometry" />
        </mxCell>
        <mxCell id="ygFPYad_q7GnZOstslIp-3" value="nome" style="rounded=1;whiteSpace=wrap;html=1;fillColor=#f5f5f5;strokeColor=#666666;fontColor=#333333;labelBorderColor=none;labelBackgroundColor=none;" vertex="1" parent="1">
          <mxGeometry x="160" y="40" width="120" height="60" as="geometry" />
        </mxCell>
        <mxCell id="ygFPYad_q7GnZOstslIp-4" value="salario" style="rounded=1;whiteSpace=wrap;html=1;fillColor=#f5f5f5;strokeColor=#666666;fontColor=#333333;labelBorderColor=none;labelBackgroundColor=none;" vertex="1" parent="1">
          <mxGeometry x="280" y="40" width="120" height="60" as="geometry" />
        </mxCell>
        <mxCell id="ygFPYad_q7GnZOstslIp-5" value="dt_admissao" style="rounded=1;whiteSpace=wrap;html=1;fillColor=#f5f5f5;strokeColor=#666666;fontColor=#333333;labelBorderColor=none;labelBackgroundColor=none;" vertex="1" parent="1">
          <mxGeometry x="400" y="40" width="120" height="60" as="geometry" />
        </mxCell>
        <mxCell id="ygFPYad_q7GnZOstslIp-7" value="&lt;h1&gt;&lt;font style=&quot;font-size: 20px;&quot;&gt;Funcionário&lt;/font&gt;&lt;/h1&gt;" style="text;html=1;strokeColor=none;fillColor=none;align=center;verticalAlign=middle;whiteSpace=wrap;rounded=0;" vertex="1" parent="1">
          <mxGeometry x="40" y="10" width="120" height="30" as="geometry" />
        </mxCell>
        <mxCell id="ygFPYad_q7GnZOstslIp-8" value="&lt;u&gt;id_funcao&lt;/u&gt;" style="rounded=1;whiteSpace=wrap;html=1;fillColor=#b1ddf0;strokeColor=#10739e;fontStyle=2;labelBorderColor=none;labelBackgroundColor=none;" vertex="1" parent="1">
          <mxGeometry x="40" y="190" width="120" height="60" as="geometry" />
        </mxCell>
        <mxCell id="ygFPYad_q7GnZOstslIp-9" value="nome_funcao" style="rounded=1;whiteSpace=wrap;html=1;fillColor=#f5f5f5;strokeColor=#666666;fontColor=#333333;labelBorderColor=none;labelBackgroundColor=none;" vertex="1" parent="1">
          <mxGeometry x="160" y="190" width="120" height="60" as="geometry" />
        </mxCell>
        <mxCell id="ygFPYad_q7GnZOstslIp-10" value="desc_funcao" style="rounded=1;whiteSpace=wrap;html=1;fillColor=#f5f5f5;strokeColor=#666666;fontColor=#333333;labelBorderColor=none;labelBackgroundColor=none;" vertex="1" parent="1">
          <mxGeometry x="280" y="190" width="120" height="60" as="geometry" />
        </mxCell>
        <mxCell id="ygFPYad_q7GnZOstslIp-12" value="&lt;h1&gt;&lt;font style=&quot;font-size: 20px;&quot;&gt;Função&lt;/font&gt;&lt;/h1&gt;" style="text;html=1;strokeColor=none;fillColor=none;align=center;verticalAlign=middle;whiteSpace=wrap;rounded=0;labelBorderColor=none;labelBackgroundColor=none;" vertex="1" parent="1">
          <mxGeometry x="40" y="160" width="120" height="30" as="geometry" />
        </mxCell>
        <mxCell id="ygFPYad_q7GnZOstslIp-13" value="&lt;u&gt;id_venda&lt;/u&gt;" style="rounded=1;whiteSpace=wrap;html=1;fillColor=#b1ddf0;strokeColor=#10739e;fontStyle=2;labelBorderColor=none;labelBackgroundColor=none;" vertex="1" parent="1">
          <mxGeometry x="40" y="330" width="120" height="60" as="geometry" />
        </mxCell>
        <mxCell id="ygFPYad_q7GnZOstslIp-14" value="data" style="rounded=1;whiteSpace=wrap;html=1;fillColor=#f5f5f5;strokeColor=#666666;fontColor=#333333;labelBorderColor=none;labelBackgroundColor=none;" vertex="1" parent="1">
          <mxGeometry x="160" y="330" width="120" height="60" as="geometry" />
        </mxCell>
        <mxCell id="ygFPYad_q7GnZOstslIp-15" value="forma_pagamento" style="rounded=1;whiteSpace=wrap;html=1;fillColor=#f5f5f5;strokeColor=#666666;fontColor=#333333;labelBorderColor=none;labelBackgroundColor=none;" vertex="1" parent="1">
          <mxGeometry x="280" y="330" width="120" height="60" as="geometry" />
        </mxCell>
        <mxCell id="ygFPYad_q7GnZOstslIp-16" value="&lt;h1&gt;&lt;font style=&quot;font-size: 20px;&quot;&gt;Venda&lt;/font&gt;&lt;/h1&gt;" style="text;html=1;strokeColor=none;fillColor=none;align=center;verticalAlign=middle;whiteSpace=wrap;rounded=0;labelBorderColor=none;labelBackgroundColor=none;" vertex="1" parent="1">
          <mxGeometry x="40" y="300" width="120" height="30" as="geometry" />
        </mxCell>
        <mxCell id="ygFPYad_q7GnZOstslIp-17" value="valor_total" style="rounded=1;whiteSpace=wrap;html=1;fillColor=#f5f5f5;strokeColor=#666666;fontColor=#333333;labelBorderColor=none;labelBackgroundColor=none;" vertex="1" parent="1">
          <mxGeometry x="400" y="330" width="120" height="60" as="geometry" />
        </mxCell>
        <mxCell id="ygFPYad_q7GnZOstslIp-18" value="&lt;u&gt;id_cliente&lt;/u&gt;" style="rounded=1;whiteSpace=wrap;html=1;fillColor=#b1ddf0;strokeColor=#10739e;fontStyle=2;labelBorderColor=none;labelBackgroundColor=none;" vertex="1" parent="1">
          <mxGeometry x="40" y="470" width="120" height="60" as="geometry" />
        </mxCell>
        <mxCell id="ygFPYad_q7GnZOstslIp-19" value="nome" style="rounded=1;whiteSpace=wrap;html=1;fillColor=#f5f5f5;strokeColor=#666666;fontColor=#333333;labelBorderColor=none;labelBackgroundColor=none;" vertex="1" parent="1">
          <mxGeometry x="160" y="470" width="120" height="60" as="geometry" />
        </mxCell>
        <mxCell id="ygFPYad_q7GnZOstslIp-20" value="cpf" style="rounded=1;whiteSpace=wrap;html=1;fillColor=#f5f5f5;strokeColor=#666666;fontColor=#333333;labelBorderColor=none;labelBackgroundColor=none;" vertex="1" parent="1">
          <mxGeometry x="280" y="470" width="120" height="60" as="geometry" />
        </mxCell>
        <mxCell id="ygFPYad_q7GnZOstslIp-21" value="&lt;h1&gt;&lt;font style=&quot;font-size: 20px;&quot;&gt;Cliente&lt;/font&gt;&lt;/h1&gt;" style="text;html=1;strokeColor=none;fillColor=none;align=center;verticalAlign=middle;whiteSpace=wrap;rounded=0;labelBorderColor=none;labelBackgroundColor=none;" vertex="1" parent="1">
          <mxGeometry x="40" y="440" width="120" height="30" as="geometry" />
        </mxCell>
        <mxCell id="ygFPYad_q7GnZOstslIp-22" value="email" style="rounded=1;whiteSpace=wrap;html=1;fillColor=#f5f5f5;strokeColor=#666666;fontColor=#333333;labelBorderColor=none;labelBackgroundColor=none;" vertex="1" parent="1">
          <mxGeometry x="400" y="470" width="120" height="60" as="geometry" />
        </mxCell>
        <mxCell id="ygFPYad_q7GnZOstslIp-23" value="&lt;u&gt;id_produto&lt;/u&gt;" style="rounded=1;whiteSpace=wrap;html=1;fillColor=#b1ddf0;strokeColor=#10739e;fontStyle=2;labelBorderColor=none;labelBackgroundColor=none;" vertex="1" parent="1">
          <mxGeometry x="40" y="610" width="120" height="60" as="geometry" />
        </mxCell>
        <mxCell id="ygFPYad_q7GnZOstslIp-24" value="desc_produto" style="rounded=1;whiteSpace=wrap;html=1;fillColor=#f5f5f5;strokeColor=#666666;fontColor=#333333;labelBorderColor=none;labelBackgroundColor=none;" vertex="1" parent="1">
          <mxGeometry x="160" y="610" width="120" height="60" as="geometry" />
        </mxCell>
        <mxCell id="ygFPYad_q7GnZOstslIp-25" value="valor" style="rounded=1;whiteSpace=wrap;html=1;fillColor=#f5f5f5;strokeColor=#666666;fontColor=#333333;labelBorderColor=none;labelBackgroundColor=none;" vertex="1" parent="1">
          <mxGeometry x="280" y="610" width="120" height="60" as="geometry" />
        </mxCell>
        <mxCell id="ygFPYad_q7GnZOstslIp-26" value="&lt;h1&gt;&lt;font style=&quot;font-size: 20px;&quot;&gt;Produto&lt;/font&gt;&lt;/h1&gt;" style="text;html=1;strokeColor=none;fillColor=none;align=center;verticalAlign=middle;whiteSpace=wrap;rounded=0;labelBorderColor=none;labelBackgroundColor=none;" vertex="1" parent="1">
          <mxGeometry x="40" y="580" width="120" height="30" as="geometry" />
        </mxCell>
        <mxCell id="ygFPYad_q7GnZOstslIp-27" value="nome" style="rounded=1;whiteSpace=wrap;html=1;fillColor=#f5f5f5;strokeColor=#666666;fontColor=#333333;labelBorderColor=none;labelBackgroundColor=none;" vertex="1" parent="1">
          <mxGeometry x="400" y="610" width="120" height="60" as="geometry" />
        </mxCell>
        <mxCell id="ygFPYad_q7GnZOstslIp-28" value="&lt;u&gt;nome&lt;/u&gt;" style="rounded=1;whiteSpace=wrap;html=1;fillColor=#b1ddf0;strokeColor=#10739e;fontStyle=2;labelBorderColor=none;labelBackgroundColor=none;" vertex="1" parent="1">
          <mxGeometry x="40" y="890" width="120" height="60" as="geometry" />
        </mxCell>
        <mxCell id="ygFPYad_q7GnZOstslIp-29" value="capacidade" style="rounded=1;whiteSpace=wrap;html=1;fillColor=#f5f5f5;strokeColor=#666666;fontColor=#333333;labelBorderColor=none;labelBackgroundColor=none;" vertex="1" parent="1">
          <mxGeometry x="160" y="890" width="120" height="60" as="geometry" />
        </mxCell>
        <mxCell id="ygFPYad_q7GnZOstslIp-31" value="&lt;h1&gt;&lt;font style=&quot;font-size: 20px;&quot;&gt;Sala&lt;/font&gt;&lt;/h1&gt;" style="text;html=1;strokeColor=none;fillColor=none;align=center;verticalAlign=middle;whiteSpace=wrap;rounded=0;labelBorderColor=none;labelBackgroundColor=none;" vertex="1" parent="1">
          <mxGeometry x="40" y="860" width="120" height="30" as="geometry" />
        </mxCell>
        <mxCell id="ygFPYad_q7GnZOstslIp-33" value="&lt;u&gt;id_sessao&lt;/u&gt;" style="rounded=1;whiteSpace=wrap;html=1;fillColor=#b1ddf0;strokeColor=#10739e;fontStyle=2;labelBorderColor=none;labelBackgroundColor=none;" vertex="1" parent="1">
          <mxGeometry x="40" y="750" width="120" height="60" as="geometry" />
        </mxCell>
        <mxCell id="ygFPYad_q7GnZOstslIp-36" value="&lt;h1&gt;&lt;font style=&quot;font-size: 20px;&quot;&gt;Sessao&lt;/font&gt;&lt;/h1&gt;" style="text;html=1;strokeColor=none;fillColor=none;align=center;verticalAlign=middle;whiteSpace=wrap;rounded=0;labelBorderColor=none;labelBackgroundColor=none;" vertex="1" parent="1">
          <mxGeometry x="40" y="720" width="120" height="30" as="geometry" />
        </mxCell>
        <mxCell id="ygFPYad_q7GnZOstslIp-38" value="&lt;u&gt;Br_nome&lt;/u&gt;" style="rounded=1;whiteSpace=wrap;html=1;fillColor=#b1ddf0;strokeColor=#10739e;fontStyle=2;labelBorderColor=none;labelBackgroundColor=none;" vertex="1" parent="1">
          <mxGeometry x="40" y="1030" width="120" height="60" as="geometry" />
        </mxCell>
        <mxCell id="ygFPYad_q7GnZOstslIp-39" value="ano" style="rounded=1;whiteSpace=wrap;html=1;fillColor=#f5f5f5;strokeColor=#666666;fontColor=#333333;labelBorderColor=none;labelBackgroundColor=none;" vertex="1" parent="1">
          <mxGeometry x="160" y="1030" width="120" height="60" as="geometry" />
        </mxCell>
        <mxCell id="ygFPYad_q7GnZOstslIp-40" value="diretor" style="rounded=1;whiteSpace=wrap;html=1;fillColor=#f5f5f5;strokeColor=#666666;fontColor=#333333;labelBorderColor=none;labelBackgroundColor=none;" vertex="1" parent="1">
          <mxGeometry x="280" y="1030" width="120" height="60" as="geometry" />
        </mxCell>
        <mxCell id="ygFPYad_q7GnZOstslIp-41" value="&lt;h1&gt;&lt;font style=&quot;font-size: 20px;&quot;&gt;Filme&lt;/font&gt;&lt;/h1&gt;" style="text;html=1;strokeColor=none;fillColor=none;align=center;verticalAlign=middle;whiteSpace=wrap;rounded=0;labelBorderColor=none;labelBackgroundColor=none;" vertex="1" parent="1">
          <mxGeometry x="40" y="1000" width="120" height="30" as="geometry" />
        </mxCell>
        <mxCell id="ygFPYad_q7GnZOstslIp-42" value="nome_original" style="rounded=1;whiteSpace=wrap;html=1;fillColor=#f5f5f5;strokeColor=#666666;fontColor=#333333;labelBorderColor=none;labelBackgroundColor=none;" vertex="1" parent="1">
          <mxGeometry x="400" y="1030" width="120" height="60" as="geometry" />
        </mxCell>
        <mxCell id="ygFPYad_q7GnZOstslIp-43" value="sinopse" style="rounded=1;whiteSpace=wrap;html=1;fillColor=#f5f5f5;strokeColor=#666666;fontColor=#333333;labelBorderColor=none;labelBackgroundColor=none;" vertex="1" parent="1">
          <mxGeometry x="520" y="1030" width="120" height="60" as="geometry" />
        </mxCell>
        <mxCell id="ygFPYad_q7GnZOstslIp-44" value="tipo" style="rounded=1;whiteSpace=wrap;html=1;fillColor=#f5f5f5;strokeColor=#666666;fontColor=#333333;labelBorderColor=none;labelBackgroundColor=none;" vertex="1" parent="1">
          <mxGeometry x="640" y="1030" width="120" height="60" as="geometry" />
        </mxCell>
        <mxCell id="ygFPYad_q7GnZOstslIp-46" value="nome" style="rounded=1;whiteSpace=wrap;html=1;fillColor=#f5f5f5;strokeColor=#666666;fontColor=#333333;labelBorderColor=none;labelBackgroundColor=none;" vertex="1" parent="1">
          <mxGeometry x="40" y="1180" width="120" height="60" as="geometry" />
        </mxCell>
        <mxCell id="ygFPYad_q7GnZOstslIp-47" value="ano" style="rounded=1;whiteSpace=wrap;html=1;fillColor=#f5f5f5;strokeColor=#666666;fontColor=#333333;labelBorderColor=none;labelBackgroundColor=none;" vertex="1" parent="1">
          <mxGeometry x="160" y="1180" width="120" height="60" as="geometry" />
        </mxCell>
        <mxCell id="ygFPYad_q7GnZOstslIp-49" value="&lt;h1&gt;&lt;font style=&quot;font-size: 20px;&quot;&gt;Premiações&lt;/font&gt;&lt;/h1&gt;" style="text;html=1;strokeColor=none;fillColor=none;align=center;verticalAlign=middle;whiteSpace=wrap;rounded=0;labelBorderColor=none;labelBackgroundColor=none;" vertex="1" parent="1">
          <mxGeometry x="40" y="1150" width="120" height="30" as="geometry" />
        </mxCell>
        <mxCell id="ygFPYad_q7GnZOstslIp-53" value="&lt;i&gt;&lt;u&gt;id_propaganda&lt;/u&gt;&lt;/i&gt;" style="rounded=1;whiteSpace=wrap;html=1;fillColor=#b1ddf0;strokeColor=#10739e;labelBorderColor=none;labelBackgroundColor=none;" vertex="1" parent="1">
          <mxGeometry x="40" y="1320" width="120" height="60" as="geometry" />
        </mxCell>
        <mxCell id="ygFPYad_q7GnZOstslIp-54" value="nome" style="rounded=1;whiteSpace=wrap;html=1;fillColor=#f5f5f5;strokeColor=#666666;fontColor=#333333;labelBorderColor=none;labelBackgroundColor=none;" vertex="1" parent="1">
          <mxGeometry x="160" y="1320" width="120" height="60" as="geometry" />
        </mxCell>
        <mxCell id="ygFPYad_q7GnZOstslIp-55" value="&lt;h1&gt;&lt;font style=&quot;font-size: 20px;&quot;&gt;Propagandas&lt;/font&gt;&lt;/h1&gt;" style="text;html=1;strokeColor=none;fillColor=none;align=center;verticalAlign=middle;whiteSpace=wrap;rounded=0;labelBorderColor=none;labelBackgroundColor=none;" vertex="1" parent="1">
          <mxGeometry x="40" y="1290" width="120" height="30" as="geometry" />
        </mxCell>
        <mxCell id="ygFPYad_q7GnZOstslIp-56" value="agencia" style="rounded=1;whiteSpace=wrap;html=1;fillColor=#f5f5f5;strokeColor=#666666;fontColor=#333333;labelBorderColor=none;labelBackgroundColor=none;" vertex="1" parent="1">
          <mxGeometry x="280" y="1320" width="120" height="60" as="geometry" />
        </mxCell>
        <mxCell id="ygFPYad_q7GnZOstslIp-57" value="&lt;u&gt;&lt;i&gt;eBr_nome&lt;/i&gt;&lt;/u&gt;" style="rounded=1;whiteSpace=wrap;html=1;fillColor=#fff2cc;strokeColor=#d6b656;labelBorderColor=none;labelBackgroundColor=none;" vertex="1" parent="1">
          <mxGeometry x="280" y="1180" width="120" height="60" as="geometry" />
        </mxCell>
        <mxCell id="ygFPYad_q7GnZOstslIp-58" value="id_funcao" style="rounded=1;whiteSpace=wrap;html=1;fillColor=#fff2cc;strokeColor=#d6b656;fontStyle=2;labelBorderColor=none;labelBackgroundColor=none;" vertex="1" parent="1">
          <mxGeometry x="520" y="40" width="120" height="60" as="geometry" />
        </mxCell>
        <mxCell id="ygFPYad_q7GnZOstslIp-62" value="num_carteira" style="rounded=1;whiteSpace=wrap;html=1;fillColor=#fff2cc;strokeColor=#d6b656;fontStyle=2;labelBorderColor=none;labelBackgroundColor=none;" vertex="1" parent="1">
          <mxGeometry x="520" y="190" width="120" height="60" as="geometry" />
        </mxCell>
        <mxCell id="ygFPYad_q7GnZOstslIp-65" value="id_venda" style="rounded=1;whiteSpace=wrap;html=1;fillColor=#fff2cc;strokeColor=#d6b656;fontStyle=2;labelBorderColor=none;labelBackgroundColor=none;" vertex="1" parent="1">
          <mxGeometry x="640" y="40" width="120" height="60" as="geometry" />
        </mxCell>
        <mxCell id="ygFPYad_q7GnZOstslIp-66" value="num_carteira" style="rounded=1;whiteSpace=wrap;html=1;fillColor=#fff2cc;strokeColor=#d6b656;fontStyle=2;labelBorderColor=none;labelBackgroundColor=none;" vertex="1" parent="1">
          <mxGeometry x="520" y="330" width="120" height="60" as="geometry" />
        </mxCell>
        <mxCell id="ygFPYad_q7GnZOstslIp-69" value="id_cliente" style="rounded=1;whiteSpace=wrap;html=1;fillColor=#fff2cc;strokeColor=#d6b656;fontStyle=2;labelBorderColor=none;labelBackgroundColor=none;" vertex="1" parent="1">
          <mxGeometry x="640" y="330" width="120" height="60" as="geometry" />
        </mxCell>
        <mxCell id="ygFPYad_q7GnZOstslIp-71" value="id_venda" style="rounded=1;whiteSpace=wrap;html=1;fillColor=#fff2cc;strokeColor=#d6b656;fontStyle=2;labelBorderColor=none;labelBackgroundColor=none;" vertex="1" parent="1">
          <mxGeometry x="640" y="470" width="120" height="60" as="geometry" />
        </mxCell>
        <mxCell id="ygFPYad_q7GnZOstslIp-73" value="id_sessao" style="rounded=1;whiteSpace=wrap;html=1;fillColor=#fff2cc;strokeColor=#d6b656;fontStyle=2;labelBorderColor=none;labelBackgroundColor=none;" vertex="1" parent="1">
          <mxGeometry x="400" y="190" width="120" height="60" as="geometry" />
        </mxCell>
        <mxCell id="ygFPYad_q7GnZOstslIp-75" value="id_funcao" style="rounded=1;whiteSpace=wrap;html=1;fillColor=#fff2cc;strokeColor=#d6b656;fontStyle=2;labelBorderColor=none;labelBackgroundColor=none;" vertex="1" parent="1">
          <mxGeometry x="160" y="750" width="120" height="60" as="geometry" />
        </mxCell>
        <mxCell id="ygFPYad_q7GnZOstslIp-77" value="id_produto" style="rounded=1;whiteSpace=wrap;html=1;fillColor=#fff2cc;strokeColor=#d6b656;fontStyle=2;labelBorderColor=none;labelBackgroundColor=none;" vertex="1" parent="1">
          <mxGeometry x="280" y="750" width="120" height="60" as="geometry" />
        </mxCell>
        <mxCell id="ygFPYad_q7GnZOstslIp-79" value="id_produto" style="rounded=1;whiteSpace=wrap;html=1;fillColor=#fff2cc;strokeColor=#d6b656;fontStyle=2;labelBorderColor=none;labelBackgroundColor=none;" vertex="1" parent="1">
          <mxGeometry x="520" y="470" width="120" height="60" as="geometry" />
        </mxCell>
        <mxCell id="ygFPYad_q7GnZOstslIp-81" value="id_venda" style="rounded=1;whiteSpace=wrap;html=1;fillColor=#fff2cc;strokeColor=#d6b656;fontStyle=2;labelBorderColor=none;labelBackgroundColor=none;" vertex="1" parent="1">
          <mxGeometry x="760" y="610" width="120" height="60" as="geometry" />
        </mxCell>
        <mxCell id="ygFPYad_q7GnZOstslIp-82" value="id_cliente" style="rounded=1;whiteSpace=wrap;html=1;fillColor=#fff2cc;strokeColor=#d6b656;fontStyle=2;labelBorderColor=none;labelBackgroundColor=none;" vertex="1" parent="1">
          <mxGeometry x="640" y="610" width="120" height="60" as="geometry" />
        </mxCell>
        <mxCell id="ygFPYad_q7GnZOstslIp-83" value="id_sessao" style="rounded=1;whiteSpace=wrap;html=1;fillColor=#fff2cc;strokeColor=#d6b656;fontStyle=2;labelBorderColor=none;labelBackgroundColor=none;" vertex="1" parent="1">
          <mxGeometry x="520" y="610" width="120" height="60" as="geometry" />
        </mxCell>
        <mxCell id="ygFPYad_q7GnZOstslIp-84" value="nro_assento" style="rounded=1;whiteSpace=wrap;html=1;fillColor=#e1d5e7;strokeColor=#9673a6;labelBorderColor=none;labelBackgroundColor=none;" vertex="1" parent="1">
          <mxGeometry x="1120" y="1030" width="120" height="60" as="geometry" />
        </mxCell>
        <mxCell id="ygFPYad_q7GnZOstslIp-85" value="Br_nome" style="rounded=1;whiteSpace=wrap;html=1;fillColor=#fff2cc;strokeColor=#d6b656;fontStyle=2;labelBorderColor=none;labelBackgroundColor=none;" vertex="1" parent="1">
          <mxGeometry x="280" y="890" width="120" height="60" as="geometry" />
        </mxCell>
        <mxCell id="ygFPYad_q7GnZOstslIp-86" value="id_sessao" style="rounded=1;whiteSpace=wrap;html=1;fillColor=#fff2cc;strokeColor=#d6b656;fontStyle=2;labelBorderColor=none;labelBackgroundColor=none;" vertex="1" parent="1">
          <mxGeometry x="400" y="890" width="120" height="60" as="geometry" />
        </mxCell>
        <mxCell id="ygFPYad_q7GnZOstslIp-87" value="horarioExib" style="rounded=1;whiteSpace=wrap;html=1;fillColor=#e1d5e7;strokeColor=#9673a6;labelBorderColor=none;labelBackgroundColor=none;" vertex="1" parent="1">
          <mxGeometry x="1240" y="1030" width="120" height="60" as="geometry" />
        </mxCell>
        <mxCell id="ygFPYad_q7GnZOstslIp-88" value="nome" style="rounded=1;whiteSpace=wrap;html=1;fillColor=#fff2cc;strokeColor=#d6b656;fontStyle=2;labelBorderColor=none;labelBackgroundColor=none;" vertex="1" parent="1">
          <mxGeometry x="880" y="1030" width="120" height="60" as="geometry" />
        </mxCell>
        <mxCell id="ygFPYad_q7GnZOstslIp-89" value="data" style="rounded=1;whiteSpace=wrap;html=1;fillColor=#e1d5e7;strokeColor=#9673a6;labelBorderColor=none;labelBackgroundColor=none;" vertex="1" parent="1">
          <mxGeometry x="1360" y="1030" width="120" height="60" as="geometry" />
        </mxCell>
        <mxCell id="ygFPYad_q7GnZOstslIp-90" value="horas" style="rounded=1;whiteSpace=wrap;html=1;fillColor=#e1d5e7;strokeColor=#9673a6;labelBorderColor=none;labelBackgroundColor=none;" vertex="1" parent="1">
          <mxGeometry x="1480" y="1030" width="120" height="60" as="geometry" />
        </mxCell>
        <mxCell id="ygFPYad_q7GnZOstslIp-91" value="Br_nome" style="rounded=1;whiteSpace=wrap;html=1;fillColor=#fff2cc;strokeColor=#d6b656;fontStyle=2;labelBorderColor=none;labelBackgroundColor=none;" vertex="1" parent="1">
          <mxGeometry x="400" y="1320" width="120" height="60" as="geometry" />
        </mxCell>
        <mxCell id="ygFPYad_q7GnZOstslIp-92" value="&lt;i&gt;&lt;span&gt;id_propaganda&lt;/span&gt;&lt;/i&gt;" style="rounded=1;whiteSpace=wrap;html=1;fillColor=#fff2cc;strokeColor=#d6b656;labelBorderColor=none;labelBackgroundColor=none;fontStyle=0" vertex="1" parent="1">
          <mxGeometry x="760" y="1030" width="120" height="60" as="geometry" />
        </mxCell>
        <mxCell id="ygFPYad_q7GnZOstslIp-93" value="" style="curved=1;endArrow=classic;html=1;rounded=0;fontSize=20;entryX=0.5;entryY=1;entryDx=0;entryDy=0;exitX=0.5;exitY=0;exitDx=0;exitDy=0;" edge="1" parent="1" source="ygFPYad_q7GnZOstslIp-62" target="ygFPYad_q7GnZOstslIp-2">
          <mxGeometry width="50" height="50" relative="1" as="geometry">
            <mxPoint x="180" y="180" as="sourcePoint" />
            <mxPoint x="230" y="130" as="targetPoint" />
            <Array as="points">
              <mxPoint x="350" y="150" />
              <mxPoint x="110" y="120" />
            </Array>
          </mxGeometry>
        </mxCell>
        <mxCell id="ygFPYad_q7GnZOstslIp-94" value="" style="curved=1;endArrow=classic;html=1;rounded=0;fontSize=20;entryX=0;entryY=0.5;entryDx=0;entryDy=0;exitX=0.5;exitY=0;exitDx=0;exitDy=0;" edge="1" parent="1" source="ygFPYad_q7GnZOstslIp-58" target="ygFPYad_q7GnZOstslIp-8">
          <mxGeometry width="50" height="50" relative="1" as="geometry">
            <mxPoint x="160" y="-216" as="sourcePoint" />
            <mxPoint x="20" y="210" as="targetPoint" />
            <Array as="points">
              <mxPoint x="60" y="-40" />
              <mxPoint x="-80" y="50" />
              <mxPoint x="-20" y="220" />
            </Array>
          </mxGeometry>
        </mxCell>
        <mxCell id="ygFPYad_q7GnZOstslIp-95" value="" style="curved=1;endArrow=classic;html=1;rounded=0;fontSize=20;entryX=0;entryY=0.5;entryDx=0;entryDy=0;exitX=0.5;exitY=0;exitDx=0;exitDy=0;" edge="1" parent="1" source="ygFPYad_q7GnZOstslIp-65" target="ygFPYad_q7GnZOstslIp-13">
          <mxGeometry width="50" height="50" relative="1" as="geometry">
            <mxPoint x="-40" y="420" as="sourcePoint" />
            <mxPoint x="10" y="370" as="targetPoint" />
            <Array as="points">
              <mxPoint x="-100" y="-160" />
              <mxPoint x="-40" y="370" />
            </Array>
          </mxGeometry>
        </mxCell>
        <mxCell id="ygFPYad_q7GnZOstslIp-96" value="" style="curved=1;endArrow=classic;html=1;rounded=0;fontSize=20;entryX=0;entryY=0.5;entryDx=0;entryDy=0;exitX=0.5;exitY=0;exitDx=0;exitDy=0;" edge="1" parent="1" source="ygFPYad_q7GnZOstslIp-73" target="ygFPYad_q7GnZOstslIp-33">
          <mxGeometry width="50" height="50" relative="1" as="geometry">
            <mxPoint x="-30" y="830" as="sourcePoint" />
            <mxPoint x="20" y="780" as="targetPoint" />
            <Array as="points">
              <mxPoint x="-110" y="20" />
              <mxPoint x="-30" y="780" />
            </Array>
          </mxGeometry>
        </mxCell>
        <mxCell id="ygFPYad_q7GnZOstslIp-97" value="" style="curved=1;endArrow=classic;html=1;rounded=0;fontSize=20;entryX=0;entryY=0.5;entryDx=0;entryDy=0;exitX=0.5;exitY=0;exitDx=0;exitDy=0;" edge="1" parent="1" source="ygFPYad_q7GnZOstslIp-69" target="ygFPYad_q7GnZOstslIp-18">
          <mxGeometry width="50" height="50" relative="1" as="geometry">
            <mxPoint x="-40" y="550" as="sourcePoint" />
            <mxPoint x="10" y="500" as="targetPoint" />
            <Array as="points">
              <mxPoint x="40" y="210" />
              <mxPoint x="-40" y="500" />
            </Array>
          </mxGeometry>
        </mxCell>
        <mxCell id="ygFPYad_q7GnZOstslIp-99" value="" style="curved=1;endArrow=classic;html=1;rounded=0;fontSize=20;entryX=0;entryY=0.5;entryDx=0;entryDy=0;exitX=0.5;exitY=0;exitDx=0;exitDy=0;" edge="1" parent="1" source="ygFPYad_q7GnZOstslIp-79" target="ygFPYad_q7GnZOstslIp-23">
          <mxGeometry width="50" height="50" relative="1" as="geometry">
            <mxPoint x="-30" y="680" as="sourcePoint" />
            <mxPoint x="20" y="630" as="targetPoint" />
            <Array as="points">
              <mxPoint x="30" y="370" />
              <mxPoint x="-30" y="630" />
            </Array>
          </mxGeometry>
        </mxCell>
        <mxCell id="ygFPYad_q7GnZOstslIp-100" value="" style="curved=1;endArrow=classic;html=1;rounded=0;fontSize=20;entryX=0.5;entryY=1;entryDx=0;entryDy=0;exitX=0.5;exitY=0;exitDx=0;exitDy=0;" edge="1" parent="1" source="ygFPYad_q7GnZOstslIp-71" target="ygFPYad_q7GnZOstslIp-13">
          <mxGeometry width="50" height="50" relative="1" as="geometry">
            <mxPoint x="230" y="420" as="sourcePoint" />
            <mxPoint x="280" y="370" as="targetPoint" />
            <Array as="points">
              <mxPoint x="230" y="410" />
              <mxPoint x="100" y="420" />
            </Array>
          </mxGeometry>
        </mxCell>
        <mxCell id="ygFPYad_q7GnZOstslIp-101" value="" style="curved=1;endArrow=classic;html=1;rounded=0;fontSize=20;entryX=0;entryY=0.75;entryDx=0;entryDy=0;exitX=0.5;exitY=0;exitDx=0;exitDy=0;" edge="1" parent="1" source="ygFPYad_q7GnZOstslIp-83" target="ygFPYad_q7GnZOstslIp-33">
          <mxGeometry width="50" height="50" relative="1" as="geometry">
            <mxPoint x="-50" y="840" as="sourcePoint" />
            <mxPoint y="790" as="targetPoint" />
            <Array as="points">
              <mxPoint x="30" y="510" />
              <mxPoint x="-50" y="790" />
            </Array>
          </mxGeometry>
        </mxCell>
        <mxCell id="ygFPYad_q7GnZOstslIp-102" value="" style="curved=1;endArrow=classic;html=1;rounded=0;fontSize=20;entryX=0.5;entryY=1;entryDx=0;entryDy=0;exitX=0.5;exitY=0;exitDx=0;exitDy=0;" edge="1" parent="1" source="ygFPYad_q7GnZOstslIp-82" target="ygFPYad_q7GnZOstslIp-18">
          <mxGeometry width="50" height="50" relative="1" as="geometry">
            <mxPoint x="230" y="660" as="sourcePoint" />
            <mxPoint x="280" y="610" as="targetPoint" />
            <Array as="points">
              <mxPoint x="460" y="570" />
              <mxPoint x="110" y="550" />
            </Array>
          </mxGeometry>
        </mxCell>
        <mxCell id="ygFPYad_q7GnZOstslIp-103" value="" style="curved=1;endArrow=classic;html=1;rounded=0;fontSize=20;entryX=0;entryY=0.5;entryDx=0;entryDy=0;exitX=0.5;exitY=0;exitDx=0;exitDy=0;" edge="1" parent="1" source="ygFPYad_q7GnZOstslIp-85" target="ygFPYad_q7GnZOstslIp-38">
          <mxGeometry width="50" height="50" relative="1" as="geometry">
            <mxPoint x="-70" y="1110" as="sourcePoint" />
            <mxPoint x="-20" y="1060" as="targetPoint" />
            <Array as="points">
              <mxPoint x="30" y="810" />
              <mxPoint x="-70" y="1060" />
            </Array>
          </mxGeometry>
        </mxCell>
        <mxCell id="ygFPYad_q7GnZOstslIp-104" value="" style="curved=1;endArrow=classic;html=1;rounded=0;fontSize=20;entryX=0.5;entryY=1;entryDx=0;entryDy=0;exitX=0.5;exitY=0;exitDx=0;exitDy=0;" edge="1" parent="1" source="ygFPYad_q7GnZOstslIp-86" target="ygFPYad_q7GnZOstslIp-33">
          <mxGeometry width="50" height="50" relative="1" as="geometry">
            <mxPoint x="230" y="900" as="sourcePoint" />
            <mxPoint x="280" y="850" as="targetPoint" />
            <Array as="points">
              <mxPoint x="120" y="860" />
            </Array>
          </mxGeometry>
        </mxCell>
        <mxCell id="ygFPYad_q7GnZOstslIp-105" value="" style="curved=1;endArrow=classic;html=1;rounded=0;fontSize=20;entryX=0;entryY=0.5;entryDx=0;entryDy=0;exitX=0.5;exitY=0;exitDx=0;exitDy=0;" edge="1" parent="1" source="ygFPYad_q7GnZOstslIp-92" target="ygFPYad_q7GnZOstslIp-53">
          <mxGeometry width="50" height="50" relative="1" as="geometry">
            <mxPoint x="-70" y="1380" as="sourcePoint" />
            <mxPoint x="-20" y="1330" as="targetPoint" />
            <Array as="points">
              <mxPoint x="-40" y="900" />
              <mxPoint x="-70" y="1330" />
            </Array>
          </mxGeometry>
        </mxCell>
        <mxCell id="ygFPYad_q7GnZOstslIp-106" value="" style="curved=1;endArrow=classic;html=1;rounded=0;fontSize=20;entryX=0.5;entryY=1;entryDx=0;entryDy=0;exitX=0.5;exitY=0;exitDx=0;exitDy=0;" edge="1" parent="1" source="ygFPYad_q7GnZOstslIp-88" target="ygFPYad_q7GnZOstslIp-28">
          <mxGeometry width="50" height="50" relative="1" as="geometry">
            <mxPoint x="390" y="1150" as="sourcePoint" />
            <mxPoint x="440" y="1100" as="targetPoint" />
            <Array as="points">
              <mxPoint x="670" y="980" />
              <mxPoint x="430" y="970" />
              <mxPoint x="110" y="980" />
            </Array>
          </mxGeometry>
        </mxCell>
        <mxCell id="ygFPYad_q7GnZOstslIp-107" value="" style="curved=1;endArrow=classic;html=1;rounded=0;fontSize=20;entryX=0.75;entryY=1;entryDx=0;entryDy=0;exitX=0.5;exitY=0;exitDx=0;exitDy=0;" edge="1" parent="1" source="ygFPYad_q7GnZOstslIp-91" target="ygFPYad_q7GnZOstslIp-38">
          <mxGeometry width="50" height="50" relative="1" as="geometry">
            <mxPoint x="390" y="1150" as="sourcePoint" />
            <mxPoint x="440" y="1100" as="targetPoint" />
            <Array as="points">
              <mxPoint x="540" y="1130" />
              <mxPoint x="150" y="1130" />
            </Array>
          </mxGeometry>
        </mxCell>
        <mxCell id="ygFPYad_q7GnZOstslIp-108" value="" style="curved=1;endArrow=classic;html=1;rounded=0;fontSize=20;entryX=0.5;entryY=1;entryDx=0;entryDy=0;exitX=0.5;exitY=0;exitDx=0;exitDy=0;" edge="1" parent="1" source="ygFPYad_q7GnZOstslIp-77" target="ygFPYad_q7GnZOstslIp-23">
          <mxGeometry width="50" height="50" relative="1" as="geometry">
            <mxPoint x="280" y="760" as="sourcePoint" />
            <mxPoint x="330" y="710" as="targetPoint" />
            <Array as="points">
              <mxPoint x="320" y="690" />
              <mxPoint x="110" y="690" />
            </Array>
          </mxGeometry>
        </mxCell>
        <mxCell id="ygFPYad_q7GnZOstslIp-109" value="id_sessao" style="rounded=1;whiteSpace=wrap;html=1;fillColor=#fff2cc;strokeColor=#d6b656;fontStyle=2;labelBorderColor=none;labelBackgroundColor=none;" vertex="1" parent="1">
          <mxGeometry x="1000" y="1030" width="120" height="60" as="geometry" />
        </mxCell>
        <mxCell id="ygFPYad_q7GnZOstslIp-111" value="" style="curved=1;endArrow=classic;html=1;rounded=0;fontSize=20;entryX=0.5;entryY=1;entryDx=0;entryDy=0;exitX=0.5;exitY=0;exitDx=0;exitDy=0;" edge="1" parent="1" source="ygFPYad_q7GnZOstslIp-57" target="ygFPYad_q7GnZOstslIp-38">
          <mxGeometry width="50" height="50" relative="1" as="geometry">
            <mxPoint x="510" y="1080" as="sourcePoint" />
            <mxPoint x="560" y="1030" as="targetPoint" />
            <Array as="points">
              <mxPoint x="330" y="1160" />
              <mxPoint x="290" y="1140" />
              <mxPoint x="140" y="1130" />
            </Array>
          </mxGeometry>
        </mxCell>
        <mxCell id="ygFPYad_q7GnZOstslIp-113" value="" style="curved=1;endArrow=classic;html=1;rounded=0;fontSize=20;entryX=0.75;entryY=1;entryDx=0;entryDy=0;exitX=0.75;exitY=0;exitDx=0;exitDy=0;" edge="1" parent="1" source="ygFPYad_q7GnZOstslIp-66" target="ygFPYad_q7GnZOstslIp-2">
          <mxGeometry width="50" height="50" relative="1" as="geometry">
            <mxPoint x="620" y="160" as="sourcePoint" />
            <mxPoint x="670" y="110" as="targetPoint" />
            <Array as="points">
              <mxPoint x="670" y="230" />
              <mxPoint x="630" y="160" />
              <mxPoint x="150" y="120" />
            </Array>
          </mxGeometry>
        </mxCell>
        <mxCell id="ygFPYad_q7GnZOstslIp-114" value="" style="curved=1;endArrow=classic;html=1;rounded=0;fontSize=20;entryX=0.75;entryY=1;entryDx=0;entryDy=0;exitX=0.5;exitY=0;exitDx=0;exitDy=0;" edge="1" parent="1" source="ygFPYad_q7GnZOstslIp-81" target="ygFPYad_q7GnZOstslIp-13">
          <mxGeometry width="50" height="50" relative="1" as="geometry">
            <mxPoint x="620" y="520" as="sourcePoint" />
            <mxPoint x="670" y="470" as="targetPoint" />
            <Array as="points">
              <mxPoint x="820" y="480" />
              <mxPoint x="610" y="420" />
              <mxPoint x="200" y="410" />
            </Array>
          </mxGeometry>
        </mxCell>
        <mxCell id="ygFPYad_q7GnZOstslIp-115" value="" style="curved=1;endArrow=classic;html=1;rounded=0;fontSize=20;entryX=0;entryY=0.75;entryDx=0;entryDy=0;exitX=0.5;exitY=0;exitDx=0;exitDy=0;" edge="1" parent="1" source="ygFPYad_q7GnZOstslIp-75" target="ygFPYad_q7GnZOstslIp-8">
          <mxGeometry width="50" height="50" relative="1" as="geometry">
            <mxPoint x="-50" y="300" as="sourcePoint" />
            <mxPoint y="250" as="targetPoint" />
            <Array as="points">
              <mxPoint x="-70" y="650" />
              <mxPoint x="-170" y="400" />
            </Array>
          </mxGeometry>
        </mxCell>
        <mxCell id="ygFPYad_q7GnZOstslIp-116" value="" style="curved=1;endArrow=classic;html=1;rounded=0;fontSize=20;entryX=0.75;entryY=1;entryDx=0;entryDy=0;exitX=0.5;exitY=0;exitDx=0;exitDy=0;" edge="1" parent="1" source="ygFPYad_q7GnZOstslIp-109" target="ygFPYad_q7GnZOstslIp-33">
          <mxGeometry width="50" height="50" relative="1" as="geometry">
            <mxPoint x="520" y="870" as="sourcePoint" />
            <mxPoint x="570" y="820" as="targetPoint" />
            <Array as="points">
              <mxPoint x="620" y="890" />
              <mxPoint x="160" y="850" />
            </Array>
          </mxGeometry>
        </mxCell>
      </root>
    </mxGraphModel>
  </diagram>
</mxfile>
